<svg xmlns="http://www.w3.org/2000/svg" viewBox="0 0 220 220">
  <!-- Two multicolor spider lilies with loose petals, same palette -->
  <defs>
    <path id="p" d="M0 1 C-3.5 -6 -5.5 -17 -1.7 -27.5 C-0.4 -20 -0.5 -9 0 1 Z"/>
    <g id="st">
      <path d="M0 0 C-2 -9 -3.5 -20 -1.5 -30.5" fill="none" stroke="#ffffff" stroke-width=".9" stroke-linecap="round" opacity=".9"/>
      <circle cx="-1.5" cy="-30.5" r="1.2" fill="#ffffff"/>
    </g>
  </defs>
  <path fill="none" stroke="#14e0c0" stroke-width="1.5" stroke-linecap="round" opacity=".7" d="M10 150 C60 110 120 62 200 16"/>
  <path fill="none" stroke="#ff4d6d" stroke-width="1.2" stroke-linecap="round" opacity=".8" d="M24 206 C80 176 140 132 196 80"/>
  <g transform="translate(140 88) rotate(-14) scale(2.5)">
    <path d="M0 1 C-2 8 2 17 0 26" fill="none" stroke="#9f1239" stroke-width="2" stroke-linecap="round"/>
    <use href="#st" transform="rotate(-68)"/>
    <use href="#st" transform="rotate(-34)"/>
    <use href="#st"/>
    <use href="#st" transform="rotate(34)"/>
    <use href="#st" transform="rotate(68)"/>
    <use href="#p" fill="#ff2748" transform="rotate(-85)"/>
    <use href="#p" fill="#ff1fd0" transform="rotate(-59) translate(0 1) scale(.9) translate(0 -1)"/>
    <use href="#p" fill="#8b30ff" transform="rotate(-36)"/>
    <use href="#p" fill="#ff2748" transform="rotate(-13) translate(0 1) scale(.94) translate(0 -1)"/>
    <use href="#p" fill="#ff8fa3" transform="rotate(11) translate(0 1) scale(.9) translate(0 -1)"/>
    <use href="#p" fill="#ff1fd0" transform="rotate(34)"/>
    <use href="#p" fill="#8b30ff" transform="rotate(57) translate(0 1) scale(.94) translate(0 -1)"/>
    <use href="#p" fill="#ff2748" transform="rotate(83)"/>
    <use href="#p" fill="#ff5470" transform="rotate(-70) translate(0 1) scale(.6) translate(0 -1)"/>
    <use href="#p" fill="#ff5ce0" transform="rotate(-35) translate(0 1) scale(.6) translate(0 -1)"/>
    <use href="#p" fill="#a855f7" transform="translate(0 1) scale(.6) translate(0 -1)"/>
    <use href="#p" fill="#ff5ce0" transform="rotate(35) translate(0 1) scale(.6) translate(0 -1)"/>
    <use href="#p" fill="#ff5470" transform="rotate(70) translate(0 1) scale(.6) translate(0 -1)"/>
    <circle r="1.7" fill="#fff1f2"/>
  </g>
  <g transform="translate(56 168) rotate(18) scale(1.6)">
    <use href="#st" transform="rotate(-40)"/>
    <use href="#st" transform="rotate(6)"/>
    <use href="#st" transform="rotate(48)"/>
    <use href="#p" fill="#ff1fd0" transform="rotate(-70)"/>
    <use href="#p" fill="#ff2748" transform="rotate(-40)"/>
    <use href="#p" fill="#8b30ff" transform="rotate(-12)"/>
    <use href="#p" fill="#ff2748" transform="rotate(16)"/>
    <use href="#p" fill="#2f6bff" transform="rotate(44)"/>
    <use href="#p" fill="#ff8fa3" transform="rotate(72)"/>
    <circle r="1.6" fill="#fff1f2"/>
  </g>
  <use href="#p" fill="#ff2748" transform="translate(178 170) rotate(120) scale(1.3)"/>
  <use href="#p" fill="#ff1fd0" transform="translate(40 60) rotate(-140) scale(1.1)"/>
  <use href="#p" fill="#8b30ff" transform="translate(108 190) rotate(70) scale(1.2)"/>
  <circle cx="188" cy="34" r="4" fill="#ff2748"/>
  <circle cx="26" cy="110" r="3.5" fill="#ff1fd0"/>
  <circle cx="196" cy="130" r="4" fill="#2f6bff"/>
  <circle cx="86" cy="36" r="3" fill="#8b30ff"/>
  <path fill="#ff1fd0" d="M204 190 q7 11 0 16 q-7 -5 0 -16"/>
  <g fill="#ffffff" opacity=".95">
    <circle cx="120" cy="46" r="1.8"/><circle cx="60" cy="90" r="1.4"/><circle cx="170" cy="60" r="1.4"/>
    <circle cx="34" cy="150" r="1.5"/><circle cx="150" cy="150" r="1.3"/><circle cx="98" cy="120" r="1.2"/>
    <circle cx="196" cy="102" r="1.2"/><circle cx="70" cy="204" r="1.4"/><circle cx="130" cy="210" r="1.1"/>
  </g>
  <g stroke="#ffffff" stroke-width="1.2" stroke-linecap="round" opacity=".9" fill="none">
    <path d="M182 148 v8 M178 152 h8"/>
    <path d="M48 40 v6 M45 43 h6"/>
  </g>
</svg>
